<?xml version="1.0" encoding="utf-8"?>
<!-- Generator: Adobe Illustrator 16.0.0, SVG Export Plug-In . SVG Version: 6.00 Build 0)  -->
<!DOCTYPE svg PUBLIC "-//W3C//DTD SVG 1.1//EN" "http://www.w3.org/Graphics/SVG/1.1/DTD/svg11.dtd">
<svg version="1.1" id="Calque_1" xmlns="http://www.w3.org/2000/svg" xmlns:xlink="http://www.w3.org/1999/xlink" x="0px" y="0px"
	 width="162.845px" height="64px" viewBox="0 0 162.845 64" enable-background="new 0 0 162.845 64" xml:space="preserve">
<rect display="none" width="200" height="64"/>
<g>
	<path fill="#FFFFFF" d="M16.206,27.753v6.517h-5.681c-0.772,0-1.318,0.113-1.64,0.343c-0.321,0.229-0.482,0.614-0.482,1.157
		c0,0.614,0.165,1.018,0.494,1.211c0.329,0.192,1,0.289,2.015,0.289h5.852v8.36H9.924c-3.215,0-5.673-0.769-7.374-2.305
		C0.851,41.789,0,39.571,0,36.67V25.202c0-2.801,0.804-4.973,2.411-6.517c1.608-1.543,3.87-2.314,6.785-2.314h7.566v8.402H11.21
		c-1.5,0-2.25,0.486-2.25,1.458c0,0.572,0.179,0.968,0.536,1.189c0.357,0.222,0.993,0.333,1.908,0.333H16.206z"/>
	<path fill="#FFFFFF" d="M35.497,16.242v8.338c-0.628-0.214-1.114-0.321-1.458-0.321c-0.657,0-1.222,0.243-1.693,0.729
		s-0.708,1.072-0.708,1.758c0,0.586,0.257,1.329,0.771,2.229l0.665,1.158c1.201,2.086,1.801,4.101,1.801,6.044
		c0,2.844-1.011,5.252-3.033,7.224c-2.022,1.973-4.491,2.958-7.406,2.958c-1.401,0-2.787-0.321-4.159-0.965v-8.467
		c0.829,0.528,1.565,0.794,2.208,0.794c0.757,0,1.39-0.219,1.897-0.654s0.761-0.982,0.761-1.64c0-0.429-0.407-1.365-1.222-2.808
		c-1.3-2.286-1.951-4.573-1.951-6.859c0-2.758,0.982-5.134,2.947-7.127c1.965-1.994,4.312-2.991,7.042-2.991
		C33.161,15.642,34.339,15.842,35.497,16.242z"/>
	<path fill="#FFFFFF" d="M52.646,24.773V45.63h-8.703V24.773h-6.666v-8.402h22.014v8.402H52.646z"/>
	<path fill="#FFFFFF" d="M71.208,16.371V45.63h-8.703V16.371H71.208z"/>
	<path fill="#FFFFFF" d="M76.46,45.63V24.538c0-2.615,0.793-4.751,2.379-6.409c1.586-1.658,3.645-2.487,6.174-2.487
		c3,0,5.309,1.379,6.923,4.137c0.986-1.486,2.044-2.547,3.173-3.183c1.129-0.636,2.522-0.954,4.179-0.954
		c2.63,0,4.645,0.829,6.045,2.487s2.101,4.044,2.101,7.159V45.63h-8.703V26.596c0-0.943-0.075-1.568-0.226-1.876
		c-0.149-0.307-0.454-0.46-0.911-0.46c-0.857,0-1.286,0.729-1.286,2.186V45.63h-8.703V26.596c0-0.929-0.079-1.551-0.236-1.865
		c-0.157-0.314-0.464-0.472-0.921-0.472c-0.857,0-1.286,0.778-1.286,2.336V45.63H76.46z"/>
	<path fill="#FFFFFF" d="M128.312,27.753v6.517h-5.681c-0.771,0-1.318,0.113-1.639,0.343c-0.322,0.229-0.483,0.614-0.483,1.157
		c0,0.614,0.165,1.018,0.493,1.211c0.329,0.192,1,0.289,2.015,0.289h5.853v8.36h-6.838c-3.216,0-5.674-0.769-7.374-2.305
		s-2.551-3.754-2.551-6.655V25.202c0-2.801,0.804-4.973,2.411-6.517c1.608-1.543,3.87-2.314,6.785-2.314h7.566v8.402h-5.552
		c-1.501,0-2.251,0.486-2.251,1.458c0,0.572,0.179,0.968,0.536,1.189c0.357,0.222,0.993,0.333,1.907,0.333H128.312z"/>
	<path fill="#FFFFFF" d="M147.733,15.642c4.144,0,7.699,1.508,10.664,4.523c2.966,3.015,4.447,6.624,4.447,10.825
		c0,4.272-1.493,7.902-4.479,10.888c-2.987,2.987-6.617,4.48-10.89,4.48c-4.243,0-7.867-1.501-10.867-4.501
		c-3.001-3.001-4.502-6.624-4.502-10.868c0-4.287,1.511-7.917,4.534-10.889C139.662,17.128,143.36,15.642,147.733,15.642z
		 M147.476,24.259c-1.786,0-3.308,0.657-4.565,1.972c-1.258,1.315-1.887,2.901-1.887,4.759c0,1.857,0.633,3.444,1.897,4.758
		s2.783,1.973,4.555,1.973c1.801,0,3.326-0.654,4.577-1.962c1.25-1.308,1.876-2.897,1.876-4.769c0-1.872-0.626-3.462-1.876-4.769
		C150.802,24.913,149.276,24.259,147.476,24.259z"/>
</g>
</svg>
