<?xml version="1.0" encoding="utf-8"?>
<!-- Generator: Adobe Illustrator 16.0.0, SVG Export Plug-In . SVG Version: 6.00 Build 0)  -->
<!DOCTYPE svg PUBLIC "-//W3C//DTD SVG 1.1//EN" "http://www.w3.org/Graphics/SVG/1.1/DTD/svg11.dtd">
<svg version="1.1" id="Calque_1" xmlns="http://www.w3.org/2000/svg" xmlns:xlink="http://www.w3.org/1999/xlink" x="0px" y="0px"
	 width="500px" height="500px" viewBox="0 0 500 500" enable-background="new 0 0 500 500" xml:space="preserve">
<g>
	<g>
		<path fill="#263238" d="M129.546,443.671c-10.367-6.382-15.553-10.37-17.148-11.167c0.399-5.981,3.988-46.662,1.596-53.043
			c-1.596-4.786-2.791-7.178-3.189-7.977l3.189-7.977v-0.398c0-0.398-2.791-30.709-3.589-39.881
			c-0.398-8.775-3.588-18.744-4.389-20.34c0-0.798,0.399-4.388,0-9.174c5.585-6.779,4.389-49.052,4.389-54.239l0,0l0,0l-2.394-22.73
			c0-1.199,1.196-13.961,0-26.723v-3.59c0-5.98-3.591-11.564-9.571-13.959c-2.791-1.195-8.376-2.791-11.565-3.987
			c-0.399,0-0.399,0-0.798,0c-0.398-1.195-1.196-1.993-1.596-3.188c13.16-5.584,21.535-19.145,21.138-34.299
			c1.595-10.369-0.397-18.346-4.786-23.531c-5.583-6.381-13.16-6.779-14.756-6.779c-6.381-1.994-11.966-3.191-17.549-3.191
			c-19.939,0-33.102,15.156-33.102,38.287c0,16.75,15.554,25.125,19.144,26.721v1.596l-8.773,5.184c0,0-0.397,0-0.397,0.398
			c-0.4,0-0.4,0-0.797,0l-2.793,0.797l0,0l0,0l-23.931,7.979c-1.594,0-3.189,0.398-4.385,1.196
			c-2.792,2.791-5.186,7.976-6.382,15.555c-3.591,19.142,0,51.845,0,53.44c0,0.398,0,0.398,0.398,0.797l13.559,15.154l-2.792,25.125
			c0,0.399-0.398,1.597,0,3.19c0.798,2.791,3.591,5.187,8.377,7.577c-0.398,7.979,0,24.327,0,25.124v7.58
			C8.308,346.758,5.516,396.609,5.516,400.997c-0.399,0.399-0.799,1.995-0.799,3.591c-1.992,2.391-5.184,6.777-4.386,8.771
			c0,0,0,0.399,0.398,0.799c8.376,21.137,18.345,27.918,25.126,30.311c0.399,0,3.19,0.797,6.379,0.797
			c3.191,0,7.181-0.397,8.776-2.792c1.596-1.992,1.196-4.783-0.399-8.374c-5.186-10.368-9.572-17.549-11.166-19.94
			c1.993-1.993,2.789-4.388,2.789-5.185c1.199-2.791,20.341-47.461,26.324-57.029c3.189-5.188,7.977-14.758,11.564-21.538
			l1.995-4.386l4.786,21.535c0.797,33.5,6.778,83.353,7.178,86.543c-0.796,5.582-1.596,12.361,0.398,13.56
			c1.197,0.799,19.939,8.773,35.893,8.773c3.191,0,5.982-0.398,8.776-1.195c0.796,0,5.981-1.197,6.381-4.388
			C135.928,448.855,133.935,446.461,129.546,443.671z M108.011,239.876c0.399,16.751,0,42.672-2.79,50.251
			c-1.995-5.982-8.376-13.561-9.972-15.555v-9.174c1.596-1.992,1.995-3.588,1.995-3.588s0,0,0-0.398l3.588-39.484L108.011,239.876z
			 M55.766,298.9c-1.595-0.797-1.993-2.394-1.595-4.387c1.197-5.187,7.977-11.168,14.356-11.168c1.197,0,1.995,0,2.793,0.399l0,0
			l0,0c0,0,0,0,0.398,0l0,0c1.597,0.797,2.791,1.993,3.59,3.59c0,1.595,0.397,9.569-3.59,12.761
			c-2.393,1.598-3.988,2.395-5.584,2.395C64.142,302.889,60.951,301.293,55.766,298.9z M27.451,192.417
			c-3.191-8.375-4.388-11.564-6.383-13.161l19.543-6.382l-2.394,16.751c0,0.398,0.399,1.196,0.798,1.196l5.982,2.394l-5.583,0.798
			c-0.399,0-0.798,0.399-0.798,0.798s-0.399,0.797,0,1.197l27.518,59.023c0.797,6.381,0.797,13.16,0.4,19.939v0.397l-33.102-35.094
			l0.396-22.733C33.434,211.559,29.843,198,27.451,192.417z M72.515,184.042L72.515,184.042
			C72.916,184.042,72.916,184.042,72.515,184.042c1.596-1.197,5.585-4.387,7.978-4.387c0.799,0,0.799,0.399,0.799,0.399l2.392,3.189
			c0.399,0.398,0.798,0.398,1.197,0.398c0.398,0,0.798-0.398,0.798-0.798c0,0,0-0.398,0.398-0.796l13.16,35.094L95.25,261.01
			c-0.399,1.197-5.186,11.967-26.722,12.766c0.401-6.78,0.401-13.162-0.397-19.942l0,0c0-1.595-4.387-39.084-5.982-48.256
			c-0.798-3.99-2.791-13.161-4.786-20.738l5.186,5.582c0.397,0.399,0.397,0.399,0.797,0.399c0.4,0,0.399,0,0.798-0.399
			L72.515,184.042z M68.527,277.365c0-0.399,0-0.799,0-1.197c13.163-0.398,20.74-4.387,24.727-8.375v6.381
			c-1.196,1.195-7.576,6.383-20.739,7.18L68.527,277.365z M97.641,174.471c4.787,1.994,7.978,6.382,7.978,11.564v3.59
			c1.198,13.56,0,26.322,0,26.719c0,0,0,0,0,0.402l1.595,13.559l-17.945-47.858c0,0,0,0,0-0.397l-1.596-3.988l0,0
			c0-1.996,0-4.389-0.398-6.781C90.463,172.076,95.249,173.672,97.641,174.471z M84.48,179.655l-0.798-1.196
			c-0.396-0.797-1.196-1.596-2.791-1.596c-1.595,0-3.59,0.799-5.186,1.596l7.181-11.965
			C85.678,171.279,85.278,176.863,84.48,179.655z M82.088,163.703L82.088,163.703C82.088,163.703,81.69,163.703,82.088,163.703
			c-0.397,0.398-0.397,0.398-0.397,0.398l0,0l-9.972,16.751l-14.755-16.751v-2.394l0,0l0,0l-1.596-11.167
			c0-0.398-0.399-0.797-0.799-0.797c-6.382-0.797-9.171-5.983-9.171-10.37c0-1.993,0.796-3.589,1.594-3.589
			c3.589-0.398,5.982,5.184,5.982,5.184c0,0.398,0.798,0.799,1.196,0.799l0,0c0.398,0,0.798-0.4,1.197-0.799l3.19-9.569l5.583-1.995
			c19.145-2.793,27.916-11.566,30.708-14.756c6.382,8.771,8.376,15.953,8.376,17.148C103.625,145.756,95.249,158.916,82.088,163.703
			z M37.819,135.785c0-21.934,11.566-35.893,30.708-35.893c5.187,0,10.77,1.195,16.751,3.19h0.399c0,0,7.976,0,13.162,5.98
			c3.188,3.989,4.785,9.175,4.785,15.954c-1.597-3.59-3.989-8.375-7.977-13.561c-0.399-0.398-0.799-0.398-0.799-0.398
			c-0.397,0-0.797,0.398-0.797,0.398s-7.977,11.566-30.31,15.154c0,0,0,0-0.399,0l-6.38,2.395c-0.399,0-0.799,0.398-0.799,0.797
			l-2.393,7.179c-1.197-1.993-3.591-4.387-7.179-3.987c-2.394,0.398-3.987,2.791-3.987,5.982c0,5.184,3.588,10.768,9.969,12.361
			l1.197,8.377C49.783,156.922,37.819,149.346,37.819,135.785z M55.766,166.097l14.757,16.748l-6.779,5.185l-15.556-17.55
			L55.766,166.097z M45.398,171.678c0.397,0,0.397,0,0.397-0.398l8.375,9.573c1.994,8.373,4.785,20.337,5.981,25.124
			c1.197,6.781,3.989,29.512,5.187,41.078l-23.93-51.047l8.772-1.197c0.399,0,0.798-0.398,1.197-1.197
			c0-0.398-0.399-1.196-0.798-1.196l-9.57-3.988l2.393-16.751h1.996V171.678z M9.504,195.607c1.596-8.775,3.989-12.363,5.583-13.959
			c0,0,0,0,0.398,0h0.399l2.392-0.796h0.399c2.393,0.796,2.792,1.992,6.78,12.761c1.995,5.186,5.583,18.744,5.583,23.529
			l-0.397,23.133c0,0.398,0,0.798,0.397,0.798l37.091,39.88l0,0c-7.179,0-15.155,7.181-16.751,13.162c0,0.398,0,0.398,0,0.798
			l-28.315-31.507c0-0.398-0.399-0.797-0.798-0.797l-13.16-14.757C9.105,243.865,6.312,213.155,9.504,195.607z M20.67,291.723
			c-0.398-1.197,0-1.596,0-1.596v-0.4l2.394-23.129l29.512,32.701l0,0c0.399,0.797,1.197,1.196,1.994,1.596
			c2.395,1.197,4.387,1.994,5.982,2.791l-0.399,0.4c-1.594,3.189-2.392,3.588-2.791,3.986c-6.382,0.4-8.376-0.398-16.75-4.387
			c-1.994-0.797-4.786-1.992-7.977-3.591C23.463,296.508,21.468,293.316,20.67,291.723z M39.016,440.48
			c-1.994,2.788-9.97,1.992-12.362,1.596c-6.382-1.995-15.554-8.375-23.532-28.717c0-0.398-0.396-0.795-0.396-0.795
			c0-0.399,0.796-2.396,2.392-4.39c0,0.398,0.399,1.197,0.399,1.597c1.596,3.188,4.786,5.184,9.97,6.381
			c5.185,1.195,9.174,0.797,11.966-0.799c1.595,2.394,5.982,9.174,11.166,19.543C39.813,437.289,39.813,439.283,39.016,440.48z
			 M74.11,322.43c1.995-3.588,9.176-7.576,19.543-11.168c0.799-0.396,0.799-0.795,0.799-1.594c-0.399-0.797-0.799-0.797-1.596-0.797
			c-6.78,2.391-18.347,6.779-21.138,12.761l-3.988,7.179c-3.589,6.78-8.374,15.953-11.565,21.537
			c-5.983,9.971-25.923,55.437-26.72,57.432v0.396c0,0-0.399,2.792-2.792,4.389c-2.394,1.595-6.382,1.992-11.168,1.195
			c-4.386-0.799-7.178-2.395-8.374-5.186c-1.596-3.19,0.398-6.779,0.398-7.178v-0.399c0-0.399,2.393-53.841,20.737-66.601
			c5.583-2.793,10.37-8.777,13.562-13.162c0.398-0.4,0.398-1.195-0.399-1.596c-0.398-0.4-1.196-0.4-1.596,0.399
			c-2.792,3.985-6.78,8.771-11.165,11.563v-30.311c0.797,0.4,1.594,0.799,2.391,1.197c3.19,1.195,5.583,2.392,7.977,3.59
			c7.179,3.189,10.37,4.387,15.155,4.387c0.798,0,1.595,0,2.793,0c1.992,0,3.588-1.994,4.784-5.186v-0.399
			c1.596,0.399,2.792,0.798,3.989,0.798c2.393,0,4.785-1.195,6.777-2.791c5.585-3.988,4.39-14.755,4.39-15.156v-0.396
			c-0.799-1.196-1.596-2.396-2.395-3.19c10.769-1.197,16.751-5.187,18.744-6.779c3.19,3.986,9.174,11.963,9.573,16.351
			c0.398,5.583,0,9.173,0,9.173c0,0.397,0,0.397,0,0.797c0,0,3.989,10.769,4.386,19.941c0.398,8.773,3.191,36.689,3.191,39.882
			l-3.191,7.976c0,0.399,0,0.8,0,1.197c0,0,1.197,1.993,3.191,8.375c1.993,5.185-0.798,39.084-1.994,52.244
			c-0.399,0.799-3.189,3.589-10.37,5.186c-7.177,1.596-11.964-2.791-13.16-3.987c-0.399-4.785-6.381-53.44-7.179-86.144
			L74.11,322.43z M133.137,450.85c-0.399,1.196-2.792,1.992-4.787,2.394c-15.952,3.988-41.476-6.781-42.672-7.577
			c-0.399-0.798-0.399-4.786,0-9.173c1.994,1.596,5.583,3.988,10.369,3.988c1.197,0,1.993,0,3.189-0.399
			c6.779-1.196,9.971-3.987,11.168-5.583c1.993,1.596,7.577,5.184,17.149,11.167C133.137,448.457,133.137,450.051,133.137,450.85z"
			/>
		<path fill="#263238" d="M106.016,387.039c0.399,5.582,0,7.578,0,7.578c0,0.796,0.399,1.195,1.197,1.195l0,0
			c0.798,0,1.197-0.399,1.197-1.195c0,0,0-1.598,0-7.578c-0.399-5.982-11.565-23.131-13.161-24.727
			c-0.399-0.399-1.196-0.799-1.596-0.399c-0.4,0.399-0.797,1.196-0.399,1.596C96.845,368.691,105.618,382.65,106.016,387.039z"/>
	</g>
	<polygon fill="#FFFFFF" stroke="#26A69A" stroke-width="8" stroke-miterlimit="10" points="74.396,43.475 114.346,127.294 
		74.396,211.113 32.762,127.294 	"/>
</g>
</svg>
