<?xml version="1.0" encoding="utf-8"?>
<!-- Generator: Adobe Illustrator 16.0.0, SVG Export Plug-In . SVG Version: 6.00 Build 0)  -->
<!DOCTYPE svg PUBLIC "-//W3C//DTD SVG 1.1//EN" "http://www.w3.org/Graphics/SVG/1.1/DTD/svg11.dtd">
<svg version="1.1" id="Calque_1" xmlns="http://www.w3.org/2000/svg" xmlns:xlink="http://www.w3.org/1999/xlink" x="0px" y="0px"
	 width="500px" height="500px" viewBox="0 0 500 500" enable-background="new 0 0 500 500" xml:space="preserve">
<g>
	<g>
		<path fill="#263238" d="M495.276,355.157c-0.333,0-0.333-0.331-0.662,0c-6.958,0.332-21.533-3.976-21.864-3.976
			c-0.332,0-0.994,0-0.994,0.332l-0.331,0.661c-3.312-1.323-9.606-3.976-12.589-5.963l1.987-0.993c0.332,0,0.332-0.332,0.663-0.662
			c0-0.332,0-0.662-0.331-0.992c-0.663-0.664-33.789-45.055-43.065-58.97c-3.645-5.631-8.614-8.28-13.25-9.606l53.335-52.339l0,0
			c0,0,0-0.331,0.331-0.331l0,0v-0.333l0,0l0,0v-0.331l0,0l0,0l-13.582-16.564c-0.332-0.331-0.664-0.331-0.994-0.331
			c-0.332,0-0.662,0-0.662,0.331l-5.301,6.957l-8.281-3.643l0,0l0,0c-0.332,0-0.332,0-0.663,0l-35.776,15.239
			c0,0-0.333,0-0.333,0.331l0,0l-10.269,10.932c-9.276,2.319-13.251,9.608-14.244,12.258l-3.646-4.638
			c-0.331-0.331-0.331-0.331-0.662-0.331c-0.33,0-0.662,0-0.662,0.331l-11.596,8.945l-11.262-14.577
			c0.331-7.62-0.331-25.177-12.589-37.766l0.995-10.269c0-0.331-0.333-0.993-0.664-0.993l-1.656-0.664l0.332-1.326
			c16.562-1.324,28.82-14.575,28.82-31.139c0-3.976,0-4.307-1.326-8.613c2.981-2.98,3.312-6.625,3.646-7.287
			c1.325-4.639,0.995-7.951-0.994-10.601c-2.65-3.644-7.618-3.644-9.276-3.644c-7.617-10.602-18.551-10.933-26.5-11.264h-1.324
			c-17.559-0.663-23.189,11.595-23.852,13.913c-20.209,14.578-9.939,30.478-3.977,39.753c1.656,2.65,2.98,4.638,3.312,5.962
			c0.332,2.321,2.319,4.308,4.97,6.294l-4.306,15.571c-10.603,9.275-17.56,33.126-19.879,42.071l-1.324-5.302
			c0-0.331-0.332-0.331-0.661-0.662c-0.333,0-0.663,0-0.994,0l-6.956,3.313c-0.663,0.332-0.663,0.663-0.663,1.326l16.563,43.396
			c-0.332,6.626-1.657,23.521-6.295,27.166c-1.655,1.324-2.649,3.312-1.988,5.299c0.662,4.307,5.634,8.282,8.283,9.938
			l-25.178,69.567c-0.332,1.323-0.332,2.648,0.663,3.976c0.662,0.993,1.987,1.657,3.644,1.657h26.171
			c1.655,0,3.312-0.994,3.976-2.983l18.883-53.666l29.153,56.315c0.661,1.326,2.318,2.32,3.645,2.32c0.66,0,1.321,0,1.985-0.332
			c1.988-0.992,2.982-3.646,1.656-5.633l-30.146-57.972h6.295l15.237,28.487c0.33,0.332,0.663,0.664,0.993,0.664l0,0l13.913-0.664
			l15.239,29.152c0.662,1.325,2.317,2.318,3.645,2.318c0.662,0,1.323-0.331,1.987-0.331c0.993-0.662,1.656-1.325,1.987-2.649
			c0.331-0.992,0.331-2.317-0.331-3.312l-13.582-25.841l5.632-0.33c0.662,0,0.994-0.664,0.994-0.994v-27.495v-0.332
			c3.975,0.662,7.287,0.662,8.611,0.993l8.943,58.635c0,0.334,0.333,0.663,0.664,0.663c0,0,0.331,0,0.662,0h0.331l1.986-0.663
			c-3.975,9.277,0,16.896,0.331,17.227c0.331,0.332,0.663,0.664,0.993,0.664h43.398c4.637,0,7.288-0.994,7.95-2.649
			c0.992-2.319-1.325-4.308-1.656-4.64c0,0-0.331-0.33-0.662-0.33c-6.957-1.324-20.209-8.945-20.209-8.945
			c-0.33-0.329-0.994-0.329-1.324,0l-0.663,0.664c-1.987-1.326-7.62-5.632-10.601-8.613l5.299-1.986
			c0.334,0,0.665-0.664,0.665-0.994v-50.022l23.852,24.183c0.33,0.332,0.33,0.332,0.662,0.332c0.331,0,0.331,0,0.664,0l3.643-2.318
			l0.663,1.326c-1.987,10.267,3.975,16.893,4.307,17.225c0.33,0.333,0.33,0.333,0.662,0.333h0.331l42.401-10.271
			c4.307-0.994,6.625-2.65,6.958-4.637C498.258,357.146,495.605,355.489,495.276,355.157z M402.52,274.328L402.52,274.328
			c-5.962-0.994-11.264,0.66-11.264,0.66l-10.27,2.652l-14.905-4.308c6.956-5.633,11.925-10.271,12.587-10.933
			c0.332-0.332,0.332-0.993,0-1.324l-1.987-2.98c1.325-0.994,2.981-1.988,3.978-3.312l29.149,9.938h0.332
			c0.33,0,0.992-0.33,0.992-0.662c0.333-0.662,0-1.326-0.662-1.326l-28.157-9.604c4.971-5.963,7.619-12.92,6.296-16.564
			c-0.331-0.994-1.325-1.988-2.982-2.319l8.283-8.613h16.893l22.528,7.62h0.331c0.331,0,0.662,0,0.662-0.331l8.612-7.622
			c0.332-0.332,0.332-0.663,0.332-0.994s-0.332-0.662-0.662-0.662l-15.9-5.963l3.312-6.956l25.84,11.595L402.52,274.328z
			 M364.423,274.988c0,0,0.331,0,0.331,0.332l12.258,3.312l-26.17,6.957C355.811,281.947,360.448,278.302,364.423,274.988z
			 M427.035,211.385l-5.632,11.926h-22.858l6.625-2.98L427.035,211.385z M425.711,219.336l14.244,5.3l-6.626,5.963l-15.902-5.301
			h4.64c0.328,0,0.66-0.332,0.992-0.663L425.711,219.336z M443.93,207.411l9.938,11.594l-13.913-6.294L443.93,207.411z
			 M370.055,248.487c0-0.33,2.982-9.606,13.252-11.925c2.65-0.663,2.98,0.662,3.313,0.993c1.324,2.651-1.325,9.938-6.958,15.571l0,0
			c-1.324,1.324-2.65,2.647-4.306,3.644l-5.633-7.619C370.055,248.82,370.055,248.487,370.055,248.487z M363.762,244.181
			l12.919,17.557c-3.312,2.982-17.888,16.232-31.802,25.508l0,0c-8.281,5.633-16.232,9.939-21.201,9.939c-0.332,0-0.662,0-0.994,0
			c-7.289-0.996-18.22-21.533-29.813-54.661c-2.317-6.957,0-14.576,5.632-18.883c0.993-0.662,2.319-1.325,3.643-1.988
			c0.664-0.331,1.327-0.331,1.989-0.331c7.949,0,17.558,14.245,17.558,14.245l11.927,30.146c0,0.332,0.331,0.662,0.662,0.662
			s0.663,0,0.994-0.33l16.895-12.92l0,0l0,0L363.762,244.181z M350.18,252.133l-8.28,6.293c0-4.637,0-10.269-1.326-18.88v-0.333
			L350.18,252.133z M338.584,237.225l-14.906-17.556v-11.265c0-0.331-0.332-0.662-0.662-0.993c-0.332-0.331-0.661,0-0.994,0
			l-5.632,3.643l-17.889-16.894l3.643-13.915l19.878,14.908C338.584,208.404,338.917,229.938,338.584,237.225z M326.326,196.479
			c-0.993-0.994-1.986-1.656-2.98-2.651l-12.588-9.606c2.651,1.324,4.637,1.986,5.301,2.319h0.331c0.332,0,0.662-0.333,0.994-0.664
			l0.662-0.992l6.625,2.651l0.331,0.331h0.331l0,0l1.657,0.662L326.326,196.479z M326.326,182.896c-0.331,0-0.662,0.332-0.993,0.663
			l-0.662,1.987l-5.631-2.318l6.624-10.602c0-0.331,0.331-0.662,0-0.994c0-0.331-0.331-0.662-0.662-0.662
			c-4.306-2.318-6.294-5.632-5.3-9.607c0.994-4.638,5.631-7.62,7.95-6.625c4.971,1.988,5.964,6.958,5.964,6.958
			c0,0.331,0.331,0.662,0.993,0.993c0.332,0,0.993-0.331,0.993-0.662l4.97-11.596c5.964,0,9.938-1.655,12.588-3.644
			c0.993,2.982,0.993,3.644,0.993,6.957C353.823,169.314,341.898,181.903,326.326,182.896z M297.839,171.964
			c-0.332-1.656-1.655-3.974-3.644-6.957c-5.965-9.275-15.238-23.521,3.644-37.102c0.33,0,0.33-0.333,0.33-0.664
			c0-0.663,3.975-12.92,20.539-12.92c0.332,0,0.994,0,1.326,0h1.324c7.949,0.331,17.889,0.662,24.847,10.933
			c0.331,0.331,0.661,0.331,0.993,0.331c0,0,0.331,0,0.66,0c1.658,0,5.302,0.332,6.959,2.651c1.324,1.988,1.655,4.968,0.663,8.613
			c0,0,0,0,0,0.331c0,0.331-0.331,3.642-3.313,6.294l0,0c-2.319,2.318-6.293,4.306-13.25,4.306c-0.333,0-0.663,0.331-0.995,0.664
			l-3.975,9.937c-0.993-1.987-2.651-4.308-5.964-5.963c-0.661-0.331-0.993-0.331-1.657-0.331c-3.644,0-7.95,3.976-8.942,8.612
			c-0.994,4.639,0.992,8.614,5.3,11.264l-7.289,11.926C310.427,181.903,298.169,176.603,297.839,171.964z M297.176,196.146
			l18.219,17.228c0.334,0.331,0.995,0.331,1.327,0l4.638-2.982v9.277c0,0.331,0,0.331,0.331,0.662l16.563,19.545
			c1.326,9.275,1.326,15.237,1.326,19.876l0,0l-4.309,3.312l-11.595-29.151c-0.332-0.662-10.269-15.57-19.545-15.57
			c-0.993,0-1.989,0.331-2.98,0.663c-1.327,0.664-2.65,1.326-3.977,2.319c-6.295,4.638-8.944,13.251-6.295,21.202
			c6.958,20.208,20.539,54.329,31.473,55.985c0.33,0,0.992,0,1.324,0c2.98,0,6.625-1.324,10.602-3.312
			c-3.977,14.576-7.62,26.171-8.614,29.152h-15.237l-32.465-84.805C278.957,235.899,285.913,206.749,297.176,196.146z
			 M367.073,326.999v5.301h-62.278h-17.227l1.986-5.301H367.073z M286.574,334.619h16.564l-18.884,53.667h-17.226L286.574,334.619z
			 M300.157,325.012h-10.271l4.971-13.912L300.157,325.012z M273.324,233.25l2.648,6.625c0,0.331,0,0.331,0.332,0.331l32.465,84.805
			h-5.963v-0.329l-18.221-46.381l0,0l-16.562-42.733L273.324,233.25z M275.975,311.1c-0.33-1.326,0.33-2.318,1.325-3.312
			c4.638-3.643,6.294-16.895,6.956-24.184l5.964,15.238l-7.288,20.207C280.943,318.057,276.636,314.411,275.975,311.1z
			 M308.771,337.602l-19.547,55.32c-0.33,0.996-0.992,1.325-1.988,1.325h-26.168c-0.664,0-1.325-0.329-1.655-0.991
			c-0.333-0.665-0.333-1.326-0.333-1.99l32.465-89.441l2.318,6.293c0,0,0,0,0,0.332l-29.151,80.5c0,0.331,0,0.662,0,0.992
			c0,0.332,0.663,0.332,0.994,0.332h19.545c0.331,0,0.993-0.332,0.993-0.662l19.214-54.991l0,0h1.988l0,0L308.771,337.602
			L308.771,337.602z M314.732,334.619l30.478,58.637c0.664,0.991,0,2.318-0.993,2.979c-0.993,0.662-2.317,0-2.982-0.991
			l-31.801-60.956L314.732,334.619L314.732,334.619z M340.241,361.451l-14.577-26.832h12.92l13.914,26.502L340.241,361.451z
			 M374.694,390.936c-0.332,0.662-0.663,0.994-0.993,1.324c-0.995,0.662-2.321,0-2.983-0.994l-29.813-56.646h4.971l28.488,54.66
			C374.694,389.609,374.694,390.271,374.694,390.936z M362.105,360.128h-0.331l-13.582-25.841h18.881v25.509L362.105,360.128z
			 M420.077,395.904c2.648,1.656,13.583,7.619,19.878,8.943c0.331,0.662,0.993,1.656,0.993,2.319c0,0.33-0.993,1.325-5.963,1.325
			h-42.734c-0.662-1.657-2.981-7.95,0-14.575l23.188,5.63c0.33,0,0.661,0,0.993-0.332L420.077,395.904z M417.095,395.574
			l-1.654,1.322l-22.527-5.299l12.92-5.301C408.814,389.279,414.777,393.918,417.095,395.574z M411.795,381.661l-22.855,9.274
			l-8.945-57.975l0,0c0,0,0,0,0-0.329c0,0,0,0,0-0.333l0,0l0,0c0,0,0,0-0.331,0c0,0,0,0-0.331,0l0,0c0,0-4.307-0.33-9.606-0.992
			v-4.641v-0.33c0-0.662-0.33-0.993-0.992-0.993h-7.951c17.888-4.969,32.465-12.258,34.121-13.251
			c5.632-0.662,10.269,0.993,13.58,5.303c2.318,2.647,3.646,6.625,3.646,10.599v53.668H411.795L411.795,381.661z M438.631,355.489
			l-24.516-25.175v-2.653c0-4.638-1.327-8.612-3.977-11.925s-7.62-6.956-15.568-5.963l0,0l0,0c0,0,0,0-0.332,0c0,0,0,0-0.33,0
			c-0.332,0-19.877,10.602-42.736,15.238h-23.188c1.324-3.976,4.971-15.9,8.944-30.146v-0.332c2.981-1.655,5.964-3.312,8.945-5.631
			l35.112-9.275l0,0c0.333,0,0.333,0,0.664-0.331l9.938-2.651c0,0,15.568-4.638,24.513,8.945
			c8.283,12.92,37.104,51.348,42.073,57.975L438.631,355.489z M456.518,347.207c2.981,2.318,10.271,5.3,13.252,6.625l-1.325,1.657
			h-23.521l-0.332-0.995L456.518,347.207z M490.306,362.115l-41.406,9.938c-1.326-1.656-4.64-6.957-3.645-14.244h23.852
			c0.331,0,0.663,0,0.993-0.332l2.981-3.976c2.98,0.993,14.906,3.976,21.533,3.976c0.662,0.332,1.325,1.326,1.325,1.988
			C495.605,359.465,494.943,360.788,490.306,362.115z"/>
		<path fill="#263238" d="M426.041,243.519l-30.809-10.268c-0.662-0.331-1.324,0-1.324,0.662c-0.332,0.663,0,1.324,0.662,1.324
			l30.808,10.272h0.333c0.33,0,0.993-0.333,0.993-0.664C427.035,244.181,426.704,243.519,426.041,243.519z"/>
	</g>
	<polygon fill="#FFFFFF" stroke="#2FA53A" stroke-width="8" stroke-miterlimit="10" points="230.297,144.542 331.519,245.764 
		382.134,93.928 	"/>
</g>
</svg>
