<?xml version="1.0" encoding="utf-8"?>
<!-- Generator: Adobe Illustrator 16.0.0, SVG Export Plug-In . SVG Version: 6.00 Build 0)  -->
<!DOCTYPE svg PUBLIC "-//W3C//DTD SVG 1.1//EN" "http://www.w3.org/Graphics/SVG/1.1/DTD/svg11.dtd">
<svg version="1.1" id="Calque_1" xmlns="http://www.w3.org/2000/svg" xmlns:xlink="http://www.w3.org/1999/xlink" x="0px" y="0px"
	 width="500px" height="500px" viewBox="0 0 500 500" enable-background="new 0 0 500 500" xml:space="preserve">
<g>
	<g>
		<path fill="#263238" d="M282.589,245.673c1.069,10.701,4.813,17.655,11.235,20.864c8.024,3.747,18.726,0,25.681-3.743
			c-2.14,3.743-3.745,8.024-4.281,14.444c-1.604,14.98-12.84,32.636-12.84,32.636s0,0.536,0,1.071
			c0.534,0.533,0.534,1.068,1.068,1.068c0,0,9.098,4.815,24.077,6.422c5.886,58.316,15.516,138.032,15.516,138.569v0.534l0,0
			c16.05,27.287,31.031,33.706,41.732,33.706c0.533,0,1.068,0,1.604,0c9.096-0.534,16.05-5.885,17.656-9.629
			c0.534-1.071,0.534-2.143,0-3.747c0.534,0,1.068,0,1.605,0c5.35,0,10.164-1.604,12.838-4.813c1.606-2.141,2.142-4.815,1.071-7.489
			c-2.141-5.886-18.726-11.236-25.146-13.376l44.94-80.255v-0.533l3.21-14.447l43.873-6.954c1.069,0,1.604-1.069,1.604-1.604
			V216.247c0-0.537,0-0.537-0.534-1.071l0,0c6.956-1.069,11.771-11.235,11.771-20.867c0-4.812-1.606-8.559-3.747-11.769
			c-2.142-2.676-4.814-4.281-8.024-4.815c0.534,0,0.534-0.535,0.534-1.071v-42.266c0-0.534,0-0.534-0.534-1.069
			c0-0.536-0.534-0.536-1.069-0.536l-44.406,6.956c-5.887-14.445-25.146-32.101-30.497-36.917
			c11.235-9.095,18.19-24.076,18.19-41.197c4.815-2.674,6.42-8.025,5.352-14.446c-2.676-13.91-20.332-32.101-39.593-35.311
			c-2.676-0.534-4.813-0.534-6.955-0.534c-20.329,0-30.495,15.515-33.705,19.793l0,0c-3.213,0-13.911,1.071-19.797,16.588
			c-8.561,21.936,6.955,43.335,11.771,49.755c-6.957,2.676-30.497,12.841-35.313,29.426c-2.139,8.025,0,16.05,6.422,24.611
			C312.55,158.999,279.378,209.826,282.589,245.673z M427.58,59.485l-41.733-8.026c-0.535,0-1.068,0-1.604,0.535
			c0,0-4.815,4.815-14.447,14.446l-4.814,6.418c-1.604-3.208-4.813-8.559-9.631-8.559c-1.604,0-3.21,0.534-4.813,1.604
			c-4.281,2.674-6.42,8.026-5.886,13.375c1.069,6.957,4.815,11.771,10.699,13.376l3.21,9.096l-7.489-4.815
			c-1.604-2.142-21.401-25.682-12.306-48.152c5.886-15.516,16.585-14.444,17.119-14.444c0.536,0,1.071-0.537,1.607-1.071
			c0,0,9.629-18.726,30.495-18.726c2.141,0,4.279,0,6.42,0.534c18.19,3.211,34.241,19.796,36.917,33.172
			C431.858,51.459,431.858,56.81,427.58,59.485z M390.663,109.776L390.663,109.776c-0.535,0-0.535,0-0.535,0l0,0l0,0
			c0,0.536,0,0.536,0,0.536l0,0l-6.956,17.119l-21.4-23.004l-4.814-13.911c0-0.537-0.535-1.071-1.071-1.071
			c-4.813-1.069-8.023-4.815-8.559-10.701c-0.534-4.278,1.069-8.025,4.278-10.167c1.071-0.534,2.142-1.068,3.212-1.068
			c3.743,0,6.954,6.42,7.487,9.095c0,0.535,0.537,1.071,1.071,1.071c0.535,0,1.07,0,1.604-0.536l6.422-8.562
			c7.489-7.488,12.304-12.303,13.908-13.909l40.662,8.026C425.974,85.702,412.599,104.427,390.663,109.776z M439.883,141.878
			l-99.514,14.979c-1.068,0-1.604,0.537-1.604,1.606v5.884c-2.675-2.674-8.023-6.42-17.122-13.911
			c-6.42-8.025-8.559-15.516-6.42-22.47c4.816-16.586,30.497-26.216,34.778-27.821l10.699,6.956l23.542,25.146
			c0,0.535,0.534,0.535,1.067,0.535c0.535,0,0.535,0,0.535,0c0.535,0,1.071-0.535,1.071-1.071l7.489-18.726
			c5.349-1.605,10.165-4.281,14.445-7.491C412.599,109.242,432.395,126.897,439.883,141.878z M340.369,207.685
			c3.747,2.676,9.633,7.491,9.633,13.912c0.534,5.35-3.21,11.235-10.167,16.585c-0.534,0.534-1.069,0.534-1.069,1.07l-0.534,0.534
			c0-0.534-0.535-0.534-1.071-0.534c-4.814,0-9.63-9.095-9.63-17.655c0-3.747,1.07-6.956,2.675-9.631
			C332.345,209.29,335.555,207.685,340.369,207.685C339.835,207.685,339.835,207.685,340.369,207.685L340.369,207.685
			L340.369,207.685L340.369,207.685z M486.432,214.106h-0.534c-6.956-4.816-10.7-10.166-10.7-15.517
			c-0.537-7.489,5.885-13.374,9.095-16.584c3.744,0,6.956,1.604,9.094,4.278c1.606,2.142,2.676,5.35,2.676,9.631
			C496.061,205.009,491.247,213.571,486.432,214.106z M340.369,371.402l1.071-131.081c7.488-6.421,11.771-12.841,11.235-19.263
			c0-8.56-7.491-14.444-11.235-17.119l-0.535-45.477l143.921-21.936v40.661c0,0.535,0.534,1.069,0.534,1.069l-1.069-1.069
			c-0.534,0.535-13.376,9.631-12.842,21.4c0,6.957,4.815,13.376,13.377,18.727c0,0.534,0,0.534,0,1.069V348.93L340.369,371.402z
			 M385.312,368.189l5.886-1.067l-5.886,14.981V368.189z M391.197,453.259c-1.069,0-3.744,0.536-8.025,0l1.605-62.597l0.533-0.534
			l9.633-23.54l44.404-6.957l-2.676,12.84L391.197,453.259z M383.706,457.006v-0.537c1.604,0.537,3.212,0.537,4.281,0.537
			c2.676,0,4.279-0.537,4.813-0.537c9.63,2.676,23.542,8.026,24.611,11.771c0.534,1.604,0,3.21-1.069,4.815
			c-2.141,2.139-6.955,4.279-13.912,3.209C398.153,469.311,387.987,460.75,383.706,457.006z M348.93,462.892
			c3.211,1.068,6.421,1.604,10.165,1.604c9.633,0,19.262-3.21,21.937-4.279c8.025,5.886,16.051,13.376,18.726,18.191
			c0.537,0,0.537,0.534,0.537,0.534c0.535,1.068,1.07,2.676,0.535,3.21c-1.072,2.141-6.421,6.956-14.981,7.489
			C377.288,490.176,363.376,485.361,348.93,462.892z M331.275,319.504c2.14,0.534,4.814,0.534,7.489,0.534l-0.534,54.041
			c0,0.532,0,0.532,0.534,1.067c0.535,0.533,0.535,0.533,1.069,0.533l0,0l42.802-6.953l-2.141,88.278
			c-4.814,1.604-24.611,8.024-34.241,0.534C345.186,449.515,336.091,375.682,331.275,319.504z M320.04,153.647
			c8.026,6.422,16.585,12.842,17.655,14.447l0,0l0.535,36.38l0,0c-4.281,0.534-8.026,2.141-10.701,5.351
			c-2.676,2.674-3.744,6.955-3.744,11.771c0,9.628,5.35,20.863,12.84,20.863l1.07,1.607c0,0,0-0.535,0.535-0.535l-0.535,73.297
			c-16.586,0-28.355-4.279-32.103-5.885c2.675-4.816,10.701-19.262,12.307-32.637c1.604-13.377,7.49-18.726,8.561-19.262l0,0
			c1.069-0.535,1.069-1.605,0.534-2.141c-0.534-1.07-1.604-1.07-2.141-0.533l0,0c-1.604,1.604-19.261,12.838-29.961,8.023
			c-5.351-2.676-8.024-8.562-9.096-18.19C282.589,211.432,314.153,162.745,320.04,153.647z"/>
	</g>
	<g>
		<circle fill="#FFFFFF" cx="415.816" cy="252.63" r="53.148"/>
		
			<circle fill="none" stroke="#E65100" stroke-width="4" stroke-miterlimit="10" stroke-dasharray="11.9235,11.9235" cx="415.816" cy="252.63" r="53.148"/>
	</g>
	<circle fill="#FFFFFF" stroke="#E65100" stroke-width="4" stroke-miterlimit="10" cx="381.932" cy="63.59" r="53.148"/>
</g>
</svg>
