<?xml version="1.0" encoding="utf-8"?>
<!-- Generator: Adobe Illustrator 16.0.0, SVG Export Plug-In . SVG Version: 6.00 Build 0)  -->
<!DOCTYPE svg PUBLIC "-//W3C//DTD SVG 1.1//EN" "http://www.w3.org/Graphics/SVG/1.1/DTD/svg11.dtd">
<svg version="1.1" id="Calque_1" xmlns="http://www.w3.org/2000/svg" xmlns:xlink="http://www.w3.org/1999/xlink" x="0px" y="0px"
	 width="500px" height="500px" viewBox="0 0 500 500" enable-background="new 0 0 500 500" xml:space="preserve">
<g>
	<path fill="#263238" d="M200.953,291.738c0-0.453,0-0.453,0-0.907l-5.44-19.954h0.453c0.453,0,0.907-0.453,0.907-0.908
		c0.452-2.269,12.698-52.155-1.36-80.727c0,0,0-0.453-0.455-0.453c0.455-0.456,0.908-0.908,0.908-1.362
		c0.907-1.361,0.907-3.173,0-4.989l-1.814-3.175c-1.814-3.627-4.989-6.803-8.164-8.615c-4.989-2.723-9.977-4.082-14.966-3.629
		c-0.452-0.453-1.36-0.907-2.267-1.361c-0.908-0.454-1.362-0.907-1.814-1.359c4.534-2.268-2.419-6.351,3.022-9.071
		c1.814-0.907,2.721-2.268,3.628-4.082c2.723-8.164,9.676-24.49,8.77-25.85c-4.083-17.234-10.433-28.119-19.503-31.293
		c-7.708-2.72-14.512,0.454-17.233,1.814c-2.267-2.268-6.802-2.723-11.792-1.36c-9.977,2.72-21.769,12.699-23.13,32.652l0,0l0,0
		c0,0.907,0,9.525,0,10.431c0,0.907,0,1.815,0.454,3.175c-3.175-0.454-4.535-0.907-8.163-1.36
		c-8.164-3.176-10.431-3.629-11.338-2.721l-9.07-5.444c16.78-4.988,26.304-18.141,26.304-35.829c0-0.905,0-1.359,0-1.813
		c0-0.908,0-1.36,0-2.267c3.628-2.724,4.989-6.35,4.081-11.793c-2.269-11.338-15.874-25.85-31.294-28.118c-1.358,0-3.174,0-4.988,0
		c-16.326,0-24.49,12.245-26.303,15.421l0,0c-2.269,0-10.885,0.907-15.874,13.606c-8.164,20.408,9.523,40.363,10.431,41.271
		c0,0,0,0,0.453,0.453l8.617,5.442l-9.978,9.524L19.092,152.96l-0.453,0.454l0,0c-0.455,0.907-8.617,20.862-10.432,35.376
		l-4.535,11.791l-3.175,11.791c0,0.454,0,1.362,0.906,1.362l3.63,1.359c-0.455,3.63-1.361,15.421,0,19.956l6.348,30.387
		c0,0.455,0.455,3.174,2.722,4.989c1.813,1.359,4.081,1.812,6.804,1.812c1.812,0,4.08-0.452,6.348-0.905
		c-0.906,12.698-3.174,47.619-0.453,69.39c0.453,3.174,1.814,5.896,3.175,8.161l32.653,51.703c0.454,4.535,0,10.886-1.36,12.244
		c-0.454,0.454-1.36,1.36-2.268,2.269c-5.442,4.988-9.978,9.979-8.163,13.605c1.36,2.267,7.256,5.896,14.512,5.896
		c1.814,0,3.177,0,4.989-0.451c-2.721,5.894-6.348,14.512-0.906,19.046c2.721,2.268,8.164,3.176,13.605,3.176
		c6.35,0,13.152-1.36,15.42-4.081c3.628-4.536-0.453-24.49-1.361-29.026c0.454-4.082,4.535-65.308,0-83.447
		c0.908-3.629,7.256-36.282,9.07-53.062c1.814-15.419,0.908-23.129,0.908-24.943c0.906-0.453,1.36-0.906,1.813-1.359
		c0.454,0,0.454-0.453,0.454-0.908l4.535-38.548c1.813,5.441,4.08,13.605,4.08,17.688c0,6.348-6.348,20.408-6.348,20.408l0,0l0,0
		c0,0-1.36,2.722,0.453,5.896c1.814,3.629,5.895,6.351,12.244,8.164l2.269,1.813l-0.453,7.257c0,0.453,0,0.906,0.453,0.906
		c0.453,0,0.453,0.454,0.908,0.454h0.453c0,0,0.906,0,1.814-0.454c-2.268,7.256-3.176,15.873-3.629,24.943
		c0,0.453,0,0.906,0.453,0.906c0,0,0.453,0.455,1.361,0.907c-0.453,6.804-2.722,44.446-1.814,50.343
		c0.453,6.801,19.955,30.838,21.77,33.561l0,0c-0.455,0.906-0.455,2.268,0,3.628v0.453l3.627,5.896
		c-0.453,2.268-2.268,10.432-4.535,14.062c-1.36,2.267-1.36,4.081-0.906,5.895c0.906,1.813,3.174,3.176,7.256,3.628
		c0,0.907,0.452,1.361,0.452,1.361l-1.358,6.802c-0.455,1.362-0.908,2.723-1.361,4.083c-1.814,4.535-4.082,10.432-1.36,14.515
		c1.813,2.722,5.896,4.534,11.792,4.534h0.454c4.533,0,8.161-1.812,10.884-4.534c7.256-8.164,4.535-24.49,4.081-25.398l-0.906-6.348
		c0-1.362-0.453-2.271-0.906-3.63l0,0c0.453-1.361,6.802-33.108,5.441-51.248c1.36-3.629,12.699-35.83,13.605-50.342
		c1.814,0,3.629-0.453,5.441-0.908c0.454,0,0.908-0.451,0.908-0.906c0-0.453,1.813-12.697,0.452-23.129
		C200.953,292.191,200.953,292.191,200.953,291.738z M198.233,290.377c-2.268,0.908-6.35,0.908-12.246,0c-0.453,0-0.453,0-0.453,0
		l-3.628-17.688c4.081,0.455,6.349,0.908,6.803,0.908l0,0h0.453l4.083-1.361L198.233,290.377z M156.056,282.215
		c-3.176,0.906-5.441,2.268-6.804,4.081c-0.906,1.36-1.359,3.628-0.906,5.442c0.453,2.268,0.906,4.082,1.36,5.896l-9.07,1.359
		l-4.082-23.582l20.862-3.177C156.964,275.865,156.508,279.493,156.056,282.215z M151.066,291.285c-0.452-1.361,0-2.268,0.453-3.176
		c0.908-1.36,2.721-2.721,5.444-3.174l0,0c0.452,0,1.358-0.453,1.358-0.908c3.63-21.315,7.711-35.827,10.885-40.362
		c4.083-0.908,9.07-1.361,13.605-0.908c-0.452,0.455-0.906,3.176-0.906,7.71c0,3.627-8.164,23.131-13.604,35.375l0,0
		c0,0,0,0,0,0.454c0,0,0,0,0,0.453c0,0,0,0,0,0.454c0,0,0,0,0,0.453l0,0l0,0l0,0c1.359,1.361,2.268,2.721,2.268,4.082
		c0.452,2.721-0.456,5.896-2.723,8.164c-3.175,3.174-5.895,4.988-8.163,4.988C154.695,303.529,153.786,302.623,151.066,291.285z
		 M175.104,187.428C175.104,187.428,175.104,186.975,175.104,187.428c4.079,1.362,7.708,2.268,11.791,2.721v0.454
		c9.523,15.873,5.441,44.446,4.082,51.702c-9.071-4.535-22.223-1.814-28.12,0c2.721-8.163,3.176-17.233,4.083-26.758
		C167.847,202.848,168.302,190.602,175.104,187.428z M173.29,290.831c-0.454-1.813-1.362-3.628-2.721-4.989
		c0.905-2.721,4.079-9.523,6.802-16.326h0.906l4.535,24.037l-9.977,1.359C173.29,293.553,173.29,292.191,173.29,290.831z
		 M192.79,190.602c12.699,25.852,2.723,72.11,1.361,78.458l-5.896,2.27c-0.907,0-3.174-0.453-6.803-0.906l0,0l-0.454-2.724
		c0-0.452-0.906-1.358-1.358-0.906h-0.456c2.723-7.257,5.444-14.06,5.444-16.327c0-4.534,0.906-6.802,0.906-6.802v-0.453
		c2.268,0.453,4.082,1.359,5.896,2.267c0.453,0.454,0.906,0.454,1.359,0c0.455,0,0.907-0.455,0.907-0.908
		c0.454-1.359,7.256-35.374-3.174-54.423h0.454l0,0c0.453,0,1.359,0,1.812,0C192.337,190.148,192.79,190.148,192.79,190.602
		C192.79,190.148,192.79,190.148,192.79,190.602z M184.628,173.369c3.174,1.813,5.441,4.535,7.256,7.71l1.813,3.175
		c0.454,0.905,0.454,1.359,0,2.267c-0.452,0.454-0.907,0.906-1.813,0.906c-0.453,0-1.36,0-1.814,0l0,0
		c-12.698,0-25.397-8.617-25.851-14.059c0-0.454-0.453-2.268,2.722-3.176c1.814-0.453,3.629-0.906,5.441-0.906
		C176.917,170.193,180.546,171.101,184.628,173.369z M165.125,166.567c0.453,0.453,1.36,0.905,2.268,1.358c-0.452,0-0.452,0-0.907,0
		c-4.987,1.362-4.987,4.536-4.987,5.897c0.454,1.813,1.359,3.628,2.721,5.441c-7.255,4.991-14.059,6.803-19.049,4.536
		c-2.268-0.907-3.175-3.628-2.268-5.896c1.814-4.988,0.455-13.605,0.455-14.058l0,0l0,0l0,0l0,0l0,0l0,0c0,0,0,0-0.455,0l0,0
		c0,0,0,0-0.453,0l0,0l0,0h-5.442h-0.453c0,0,0-0.455-0.454-0.455c-7.709-5.442-9.977-14.059-10.431-19.954
		c-0.907-11.338,3.628-23.131,7.256-26.305c6.804-6.351,10.433-2.721,10.886-2.721c0.453,0.454,1.359,0.454,1.813,0
		c0,0,2.722-2.268,6.349-1.814c2.723,0.453,5.896,2.268,8.163,5.896c14.513,20.409,2.27,47.165,2.27,47.62l0,0c0,0,0,0,0,0.454
		c0,0,0,0,0,0.453c0,0,0,0,0,0.453c0,0,0,0,0,0.453l0,0l0,0c0,0,0,0.455,0.452,0.455l0,0l0,0h0.454l0,0l0,0h0.454
		C163.766,166.567,164.219,166.567,165.125,166.567C164.672,166.567,165.125,166.567,165.125,166.567z M134.74,97.63
		c4.988-1.36,9.07-0.453,9.977,1.361c0,0.454,0.453,0.454,0.907,0.454s0.906,0,0.906,0s7.71-5.442,15.875-2.268
		c8.164,3.175,14.058,13.152,17.687,29.479l0,0l0,0c2.269,4.535-22.072,2.57-23.885,8.92c-0.455,1.359,13.756,2.268,12.851,2.72
		c-5.444,2.721,1.056,21.92-3.024,24.188c3.174-8.164,8.615-29.479-3.628-46.714c-3.176-4.079-6.35-6.347-9.978-6.802
		c-3.176-0.453-5.897,0.908-7.258,1.814c-1.812-1.359-6.803-3.174-13.605,3.176c-4.535,4.081-8.616,16.779-8.162,28.571
		c0.453,8.617,4.082,15.873,9.522,20.408c-5.44,0.454-10.431-27.966-11.79-27.058c-2.722-1.363-5.896,17.988-7.257,2.568
		c0-0.907,0-6.348,0-9.979C114.785,109.423,125.669,99.897,134.74,97.63z M101.18,142.076c-1.362,1.815-3.629,6.349-7.71,11.792
		c-0.454-0.907-0.907-1.36-2.268-2.268c-0.908-0.454-1.362-0.454-2.268-0.454l0,0c2.268-3.628,4.081-7.255,5.441-10.884l0,0l0,0l0,0
		C95.737,140.261,97.551,140.715,101.18,142.076z M67.618,255.457l-0.906,13.15c-5.897-0.907-28.119-5.441-37.644-10.885
		l-1.814-26.304c9.07-3.174,18.142-7.256,21.77-8.616c1.814,1.36,6.35,4.08,13.153,4.08c1.358,0,3.173,0,4.987-0.453L67.618,255.457
		z M49.93,220.081L49.93,220.081C49.477,220.081,49.477,220.081,49.93,220.081c-0.453-0.454-0.453-0.454-0.453-0.454s0,0-0.453,0
		c0,0,0,0-0.453,0l0,0c-7.711,3.176-15.419,6.35-22.676,9.071H25.44c-0.454,0-0.907,0.453-0.907,0.453
		c-8.617,3.175-15.42,4.99-16.78,4.536c-1.36-3.174-0.453-14.512,0-19.048c8.617-4.536,15.873-1.36,15.873-1.36l0,0l0,0
		c0,0,0,0,0.454,0l0,0l0,0l0,0l0,0l0,0l0,0l0,0l19.501-5.442c9.978-1.362,20.41,2.721,25.398,6.802
		c2.268,1.815,3.627,4.083,3.627,5.442c0,1.361-1.813,1.814-2.722,2.267C58.094,226.883,50.386,220.536,49.93,220.081z
		 M44.488,161.123c0.454,0.456,0.907,0.456,1.362,0l9.069-3.627l2.721,7.709c0.907,5.897,2.268,10.886,3.174,14.967l0,0
		c-14.512,14.06-29.479,25.397-34.92,29.026c0-8.617-0.454-36.737-4.082-55.331l22.676-14.06v19.956
		C44.035,160.216,44.035,160.67,44.488,161.123z M91.202,155.682l-3.176,4.988c-0.452,0-1.359,0-2.268-0.907
		c-0.907-0.908-0.907-1.361-0.907-1.361l2.723-4.082c0,0,0.452-0.907,1.36-0.907c0.453,0,0.453,0,0.905,0.454
		c0.907,0.453,0.907,0.907,1.362,0.907C91.202,155.228,91.202,155.682,91.202,155.682z M78.956,160.216
		c0-6.349,0.454-12.245,0.908-17.234c0.454-0.453,0.454-0.906,0-1.359c0.454-3.629,0.454-6.803,0.906-8.618l10.885,6.803
		C88.935,146.611,84.398,153.867,78.956,160.216z M76.688,163.391c-4.535,4.99-9.07,10.432-14.06,14.967
		c-0.905-4.082-1.814-8.165-2.721-13.606v-12.244L59,144.797c1.813,0.908,4.534,1.815,8.163,1.815c2.721,0,6.351-0.454,10.433-2.268
		C76.688,149.785,76.688,156.588,76.688,163.391z M49.477,205.115c5.443-3.628,10.432-8.164,14.967-12.699l0,0
		c0.906,2.268,1.815,4.083,3.175,5.896c-0.454,0.454-0.454,0.907-0.906,1.36c0,0,0,0.455,0,0.908v9.07
		C61.724,206.93,55.373,205.115,49.477,205.115z M68.979,195.592c-0.908-1.361-1.361-2.722-2.268-4.082
		c0-0.453-0.453-0.453-0.908-0.908c2.723-2.721,4.989-4.989,7.258-7.709C72.153,187.881,70.793,191.963,68.979,195.592z
		 M44.488,205.115l-0.907,0.454c-1.813,0.454-3.628,0.906-4.988,1.361c0,0,0,0-0.454,0l-7.256,1.813
		c11.338-8.163,35.829-27.664,51.702-48.98c0.453,0.907,0.905,1.359,1.813,2.268c0.907,0.453,1.36,0.906,2.269,1.36
		C76.235,176.996,61.269,194.231,44.488,205.115z M107.075,94.002c0,0.454,0,1.359,0,1.814c0,17.233-10.432,29.933-27.211,34.015
		l0,0l0,0l0,0c0,0-0.454,0-0.454,0.453l0,0v0.453l0,0c0,0-0.454,4.083-0.907,10.886c-10.885,5.441-17.688,1.359-19.047,0
		l-1.815-14.06c0-0.454,0-0.454-0.453-0.454c0,0,0.453-0.453,0.453-0.906c0-0.454,0-0.454-0.453-0.907l-4.081-10.884
		c0-0.454-0.454-0.908-0.908-0.908c-4.081-0.906-6.348-3.627-6.803-8.615c-0.453-3.629,0.907-6.803,3.628-8.164
		c0.906-0.454,1.814-0.908,2.268-0.908c3.174,0,5.442,4.988,5.896,7.256c0,0.454,0.453,0.906,0.906,0.906
		c0.454,0,0.907,0,1.362-0.453l4.987-6.802c5.896-5.897,9.525-9.978,10.886-11.339l32.652,6.803
		C107.075,93.094,107.075,93.549,107.075,94.002z M46.757,119.4c-1.361-1.815-16.781-20.409-9.978-38.55
		c4.988-12.699,13.606-11.791,13.606-11.791c0.452,0,0.905,0,1.359-0.908c0,0,7.711-14.965,24.49-14.965
		c1.813,0,3.175,0,4.989,0.453c14.513,2.268,27.211,15.874,29.478,26.306c0.454,2.721,0.454,6.802-3.174,9.07L74.42,83.118
		c-0.452,0-0.906,0-1.359,0.453c0,0-4.082,4.083-11.793,11.792l-3.628,4.99c-1.36-2.722-3.628-6.803-7.711-6.803
		c-1.359,0-2.721,0.454-3.627,1.36c-3.176,2.268-4.988,6.35-4.535,10.884c0.453,5.442,3.628,9.524,8.162,10.432l2.723,7.256
		L46.757,119.4z M46.303,138.447l7.71-7.71l1.36,11.792l0,0l1.36,10.431v4.083l-0.453-1.361c0-0.454-0.454-0.454-0.907-0.907
		c-0.453,0-0.908,0-0.908,0l-8.614,3.627v-19.955H46.303z M6.393,201.034l4.535-11.792c0,0,0,0,0-0.453
		c1.361-9.979,5.896-23.585,8.617-30.388c3.174,18.594,3.629,44.899,3.629,51.702c-3.176-0.906-9.525-1.813-16.781,1.815
		l-3.175-0.907L6.393,201.034z M15.916,268.156c-1.813-1.362-1.813-3.176-1.813-3.176s0,0,0-0.453l-5.896-28.573l0,0
		c3.174,0,9.523-1.813,16.326-4.081l1.814,26.304c0,0.452,0.453,0.907,0.453,0.907c0.453,0,0.908,0.452,1.361,0.452l-0.908,6.353
		c0,0,0,0.904,0,1.812C20.451,269.969,17.277,269.062,15.916,268.156z M53.559,427.796c-0.906-2.27,4.989-8.165,7.71-10.433
		c0.908-0.906,1.814-1.813,2.267-2.269c2.269-2.268,1.814-9.977,1.814-13.149c1.362,0,3.177,0,4.989-0.455l1.36,22.677l0,0
		c0,0,0,0,0,0.454l0,0l0,0c0,0,1.362,2.268-0.452,6.803C63.083,434.598,54.465,429.61,53.559,427.796z M96.644,450.925
		c-3.174,3.628-20.408,4.534-25.396,0.453c-4.083-3.175-0.454-10.431,1.814-15.874c0.453-0.906,0.907-1.812,1.359-2.721l0,0l0,0
		c1.814-4.081,1.361-6.803,0.908-8.162c3.174-0.908,11.338-3.175,19.5,0C96.644,434.146,98.911,448.657,96.644,450.925z
		 M103.9,286.749c-1.814,17.233-9.071,52.608-9.071,53.062v0.455c4.082,15.871,0.908,70.748,0,81.634
		c-8.616-3.175-16.78-0.907-20.408,0l-4.536-69.39l0,0l-0.905-11.791l2.268-58.052v-0.907c0-0.453,0-0.453,0-0.906v-3.175
		c0-0.909-0.454-1.36-1.362-1.36c-0.905,0-1.358,0.451-1.358,1.36v4.535l-11.793,53.515c0,0.455,0,0.455,0,0.907
		c3.629,5.896,7.258,12.244,9.979,16.328l3.173,45.353c-2.267,0.453-4.535,0.453-5.441,0.453l-32.199-52.154
		c-1.361-2.271-2.723-4.536-3.176-7.258c-3.628-25.851,0.453-72.563,0.907-73.017l0.907-5.442
		c12.698,5.442,35.829,9.979,36.735,9.979c0,0,0,0,0.453,0c0.455,0,0.455,0,0.908-0.453c0.453,0,0.453-0.455,0.453-0.908
		l0.452-4.535l2.269,7.711c0,0.453,0.908,0.906,1.361,0.906c0,0,0,0,0.454,0c0.905-0.453,21.313-5.896,31.292-10.432
		C104.808,266.342,105.261,273.598,103.9,286.749z M66.712,347.523c-1.815-3.631-4.535-7.258-6.804-11.34l8.163-38.097
		l-1.812,43.085L66.712,347.523z M107.075,258.63c-4.989,3.629-23.131,9.526-33.106,12.247l-3.63-11.792v-4.082v-0.907v-0.453
		l-0.454-28.118c0.454,0,0.908-0.454,1.362-0.454c3.174-1.361,4.082-3.175,4.535-4.535c0.453-2.267-1.361-5.444-4.535-8.165
		c-0.454-0.453-1.362-0.906-1.814-1.36V200.58c3.174-4.989,5.441-11.791,7.708-20.409c0-0.453,0-0.453,0-0.908
		c14.515-16.78,24.491-33.106,26.76-36.735c3.175,0.453,4.535,0.908,8.163,1.362c1.36,11.791,4.083,8.465,9.071,9.372v-30.235
		l0.453,30.235c0,0,8.616,11.489,15.419,11.941h1.815L116.146,183.8c-0.455,0-0.455,0.455-0.455,0.907L107.075,258.63z
		 M120.682,239.129c0-7.256-5.443-22.675-5.896-23.584l0,0l3.173-29.479l23.585-19.047c0.452,2.721,0.452,7.256-0.453,10.431
		c-1.361,3.628,0.453,7.709,3.627,9.071c1.361,0.906,3.629,1.36,5.897,1.36c4.081,0,9.069-1.36,15.871-6.35
		c1.816,1.361,4.084,3.175,6.351,4.535c-6.803,4.535-7.711,16.781-8.617,29.934c-0.907,9.977-1.361,20.408-4.535,28.118
		c0,0.453,0,0.907,0.452,1.361c0.454,0.454,0.454,0.454,0.908,0.454h0.454c0,0,1.813-0.454,4.535-1.362
		c-2.268,4.535-4.535,11.792-5.897,19.502c-0.452,0-1.36-0.453-1.813-0.453c-1.358-0.454-3.173-0.908-4.082-1.361
		c-8.616-3.629-16.78-4.987-24.036-4.987l0,0h-0.452c-5.896,0-10.886,0.453-14.061,0.906
		C116.599,253.643,120.682,244.571,120.682,239.129z M125.216,271.33C125.216,271.33,124.762,271.33,125.216,271.33
		c-7.71-2.27-10.431-4.988-11.338-6.803c-0.908-1.361-0.454-2.723-0.454-3.176c1.814-0.453,6.803-1.359,14.061-1.359l-1.361,12.697
		L125.216,271.33z M130.204,259.537c6.803,0.455,14.513,1.361,22.224,4.536c1.358,0.454,2.722,0.907,4.536,1.36
		c0.905,0,1.358,0.455,2.266,0.455c0,0.904-0.454,2.268-0.454,3.172l-23.129,3.629c-0.453,0-0.453,0.455-0.906,0.455
		c0,0.453-0.453,0.453,0,0.904l0.906,5.896c-2.722,0-5.442,0.453-6.803,0.906L130.204,259.537z M127.938,360.673
		c-0.453-5.44,1.359-40.36,1.814-48.979c4.535,1.814,13.605,3.627,27.664,2.269l-9.523,39.456c0,0.453,0,0.908,0,0.908
		c2.268,3.175,5.441,9.977,7.257,15.873c0,3.627,0.453,11.339,0.453,19.048c-1.362,0-4.988,0.453-7.257,2.721
		C140.636,381.537,128.391,365.208,127.938,360.673z M155.603,363.396c-1.362-3.629-3.175-7.711-4.988-10.432l8.615-34.922
		C158.322,328.926,156.508,352.511,155.603,363.396z M148.346,423.26c-0.453-0.904,0-1.812,0.906-3.629
		c2.721-4.535,4.534-14.965,4.988-15.418c0-0.455,0-0.455,0-0.908l-3.626-6.35c-0.454-1.359,0-2.268,0.452-3.174
		c1.361-1.361,4.083-1.814,5.441-1.814c0.456,9.979,0.908,19.955,0.908,22.676c-0.908,0.453-1.813,1.361-2.267,2.27
		c-1.815,2.268-1.815,5.896-1.815,8.615C150.16,425.074,148.799,424.167,148.346,423.26z M171.021,453.191
		c-2.267,2.722-4.988,3.631-9.069,3.631h-0.454c-4.99,0-8.618-1.363-9.979-3.631c-1.813-3.175,0-7.709,1.36-11.79
		c0.454-1.814,1.36-3.177,1.36-4.535l1.815-6.804v-0.452c0,0-2.27-7.257,0.452-10.886c0.456-0.906,1.361-1.361,2.268-1.813l0,0
		c0.908-0.454,1.814-0.454,3.177-0.454c0.453,0,0.905,0,1.813,0c0,0,0,0,0.453,0h0.453c2.269,0,7.71,0.906,8.618,7.256l0.905,6.351
		C175.104,430.062,177.371,445.482,171.021,453.191z M177.824,367.477v0.455c1.359,14.965-3.176,40.816-4.534,48.525
		c-2.721-2.723-6.805-2.723-8.165-2.723c-0.453,0-0.453,0-0.906,0c-1.813,0-3.175,0-4.535,0c-0.454-7.711-1.814-38.547-1.814-44.897
		s3.175-46.258,4.083-54.876c4.988,1.359,14.965,3.628,25.396,3.628c1.361,0,2.722,0,4.083,0
		C190.523,332.557,178.277,367.021,177.824,367.477z M198.233,314.414c-16.781,3.629-38.098-3.629-38.55-3.629l0,0l0,0
		c0,0,0,0-0.454,0l0,0c-15.872,1.814-25.397-0.453-29.025-2.268c0-0.453-0.452-0.453-0.907-0.453l0,0c0,0-0.453,0-0.453-0.453
		c0.453-9.07,1.36-17.234,3.629-24.036c0,0,0,0,0-0.454c0.906,0,2.268-0.453,3.627-0.453l0,0l3.175,17.688
		c0,0.453,0.454,0.905,1.361,0.905l0,0l10.884-1.358c1.814,4.533,4.083,5.896,8.616,6.803c0.454,0,0.454,0,0.908,0
		c3.628,0,7.258-3.176,9.978-5.443c0.906-0.904,1.814-2.268,2.269-3.627l12.244-1.814c0.453,0,0.453-0.452,0.907-0.452
		c0-0.455,0.454-0.455,0-0.908v-0.905c2.721,0.452,4.989,0.452,7.256,0.452c2.269,0,4.083-0.452,5.442-0.905
		C199.593,301.715,198.687,311.693,198.233,314.414z"/>
	<rect x="26" y="44" fill="#FFFFFF" stroke="#F1C11C" stroke-width="4" stroke-miterlimit="10" width="85" height="81"/>
	<path fill="#FFFFFF" stroke="#E65100" stroke-width="4" stroke-miterlimit="10" d="M191.426,119.856
		c0-24.882-20.168-45.053-45.053-45.053c-24.881,0-45.053,20.171-45.053,45.053c0,24.883,20.172,45.052,45.053,45.052
		C171.258,164.908,191.426,144.739,191.426,119.856z"/>
</g>
</svg>
