<?xml version="1.0" encoding="utf-8"?>
<!-- Generator: Adobe Illustrator 16.0.0, SVG Export Plug-In . SVG Version: 6.00 Build 0)  -->
<!DOCTYPE svg PUBLIC "-//W3C//DTD SVG 1.1//EN" "http://www.w3.org/Graphics/SVG/1.1/DTD/svg11.dtd">
<svg version="1.1" xmlns="http://www.w3.org/2000/svg" xmlns:xlink="http://www.w3.org/1999/xlink" x="0px" y="0px" width="1280px"
	 height="100px" viewBox="0 0 1280 100" enable-background="new 0 0 1280 100" xml:space="preserve">
<g id="Calque_3" display="none">
	<rect display="inline" fill="#FF00FF" width="1280" height="100"/>
</g>
<g id="Calque_1" display="none">
	<polygon display="inline" fill="#FFFFFF" points="640,10 4.961,110 640,110 1275.039,110 	"/>
	<polygon display="inline" opacity="0.5" fill="#FFFFFF" points="640,0 5,100 640,100 1275,100 	"/>
</g>
<g id="Calque_2">
	<path fill="#FFFFFF" d="M1051.565,31.853c-0.667-6.594-6.552-11.399-13.146-10.733l-838.732,84.713
		c-6.594,0.666-11.399,6.552-10.733,13.145l16.48,163.17c0.666,6.594,6.551,11.399,13.145,10.733l838.733-84.714
		c6.593-0.665,11.399-6.551,10.732-13.145L1051.565,31.853z"/>
	<path opacity="0.5" fill="#FFFFFF" d="M1071.565,10.853c-0.667-6.594-6.552-11.399-13.146-10.733L219.688,84.833
		c-6.594,0.666-11.399,6.552-10.733,13.145l16.48,163.17c0.666,6.594,6.551,11.399,13.145,10.733l838.733-84.714
		c6.593-0.665,11.399-6.551,10.732-13.145L1071.565,10.853z"/>
</g>
<g id="Calque_4">
</g>
</svg>
